:version 1.10
:name ASF
:units
  mass 1
  length 1
  angle deg
:documentation
  ASF file generated by Kaydara
:root
  axis xyz
  order  tx ty tz rx ry rz
  position 0 0 0
  orientation 0 0 0
:bonedata
  begin
    id 1
    name RightUpLegDummy
    direction -0.718183 -0.695806 0.00816078
    length 4.904
    axis 0 0 0 xyz
  end
  begin
    id 2
    name RightUpLeg
    direction -0.0736652 -0.994202 0.0783343
    length 17.4976
    axis -2.72909 -3.00389 -4.00133 xyz
    dof rx ry rz
  end
  begin
    id 3
    name RightLeg
    direction -0.0389037 -0.994596 -0.0962598
    length 16.5821
    axis 3.95836 -18.5909 -4.46993 xyz
    dof rx ry rz
  end
  begin
    id 4
    name RightFoot
    direction -0.311643 -0.412678 0.855906
    length 3.77069
    axis -1.99483 -18.8351 -3.27644 xyz
    dof rx ry rz
  end
  begin
    id 5
    name RightToes
    direction -0.317852 0.0389852 0.947339
    length 3.85082
    axis -2.00228 -18.1713 -3.25211 xyz
    dof rx ry rz
  end
  begin
    id 6
    name SpineDummy
    direction 8.3039e-015 1 4.44677e-016
    length 4.6813
    axis 0 0 0 xyz
  end
  begin
    id 7
    name Spine
    direction -0.000262373 0.999988 0.00493267
    length 10.1015
    axis -0.00246081 0.00062579 0.0150362 xyz
    dof rx ry rz
  end
  begin
    id 8
    name Spine1
    direction 0 0 0
    length 0
    axis -0.00349562 0.000650293 0.0196666 xyz
    dof rx ry rz
  end
  begin
    id 9
    name HEadDummy
    direction -0.000343232 0.999999 0.00123745
    length 3.43865
    axis -0.00349562 0.000650293 0.0196666 xyz
  end
  begin
    id 10
    name HEad
    direction -0.0461221 0.980933 0.188796
    length 5.12695
    axis -0.00351404 -7.04812 0.0199272 xyz
    dof rx ry rz
  end
  begin
    id 11
    name LeftShoulder1Dummy
    direction 0.998904 -0.0399089 -0.0244534
    length 3.5433
    axis -0.00349562 0.000650293 0.0196666 xyz
  end
  begin
    id 12
    name LeftShoulder1
    direction 0.99951 1.64443e-005 0.0312999
    length 4.05031
    axis -0.00349562 0.000650293 0.0196666 xyz
    dof rx ry rz
  end
  begin
    id 13
    name LeftArm
    direction 0.984791 0.0515299 0.165927
    length 12.9126
    axis -64.823 -10.7743 5.20463 xyz
    dof rx ry rz
  end
  begin
    id 14
    name LeftForeArm
    direction 0.984968 0.0534808 0.16425
    length 10.8596
    axis -30.0462 -7.70601 1.87451 xyz
    dof rx ry rz
  end
  begin
    id 15
    name LeftHand
    direction 0.975871 0.0289682 0.216418
    length 6.62295
    axis -20.1348 -6.98077 1.86072 xyz
    dof rx ry rz
  end
  begin
    id 16
    name RightShoulderDummy
    direction -0.998877 -0.0405946 -0.0244307
    length 3.5433
    axis -0.00349562 0.000650293 0.0196666 xyz
  end
  begin
    id 17
    name RightShoulder
    direction -0.998933 -0.0249743 -0.0388558
    length 4.05031
    axis -0.0205316 -4.02113 1.41395 xyz
    dof rx ry rz
  end
  begin
    id 18
    name RightArm
    direction -0.997559 0.068664 0.0127103
    length 12.9638
    axis -67.3882 1.84188 -6.15987 xyz
    dof rx ry rz
  end
  begin
    id 19
    name RightForeArm
    direction -0.991508 0.0912848 0.0926241
    length 10.8312
    axis -22.1975 3.41087 -4.28711 xyz
    dof rx ry rz
  end
  begin
    id 20
    name RightHand
    direction -0.989262 0.0600788 0.133232
    length 6.57864
    axis -12.2911 2.17515 -4.39675 xyz
    dof rx ry rz
  end
  begin
    id 21
    name LeftUpLegDummy
    direction 0.718183 -0.695806 0.00816078
    length 4.904
    axis 0 0 0 xyz
  end
  begin
    id 22
    name LeftUpLeg
    direction 0.0831398 -0.99469 0.0606531
    length 17.4976
    axis -1.71016 2.29552 4.63832 xyz
    dof rx ry rz
  end
  begin
    id 23
    name LeftLeg
    direction 0.0498442 -0.991778 -0.117862
    length 16.5821
    axis 5.13757 15.5727 5.13348 xyz
    dof rx ry rz
  end
  begin
    id 24
    name LeftFoot
    direction 0.269026 -0.433896 0.85986
    length 3.77069
    axis -0.576502 15.6961 4.10267 xyz
    dof rx ry rz
  end
  begin
    id 25
    name LeftToes
    direction 0.277311 0.0251143 0.960452
    length 3.85048
    axis -0.576502 15.6961 4.10267 xyz
    dof rx ry rz
  end
:hierarchy
  begin
    root RightUpLegDummy SpineDummy LeftUpLegDummy
    RightUpLegDummy RightUpLeg
    RightUpLeg RightLeg
    RightLeg RightFoot
    RightFoot RightToes
    SpineDummy Spine
    Spine Spine1
    Spine1 HEadDummy LeftShoulder1Dummy RightShoulderDummy
    HEadDummy HEad
    LeftShoulder1Dummy LeftShoulder1
    LeftShoulder1 LeftArm
    LeftArm LeftForeArm
    LeftForeArm LeftHand
    RightShoulderDummy RightShoulder
    RightShoulder RightArm
    RightArm RightForeArm
    RightForeArm RightHand
    LeftUpLegDummy LeftUpLeg
    LeftUpLeg LeftLeg
    LeftLeg LeftFoot
    LeftFoot LeftToes
  end

:SAMPLES-PER-SECOND 30
:FULLY-SPECIFIED
:DEGREES
124
root  15.3664 38.615 -1.8874 -6.00619 11.5592 -0.0787632
RightUpLeg  -25.7867 -10.7266 4.91826
RightLeg  43.2364 13.8536 -3.0273
RightFoot  -1.09645 -0.671561 6.2545
RightToes  5.82077e-011 -3.18055e-015 -2.98177e-016
Spine  7.41371 0.123317 -1.87251
Spine1  6.62665 -0.322103 1.91238
HEad  -7.43977 -7.4492 -0.454908
LeftShoulder1  -3.88251e-019 9.70628e-020 -3.87848e-018
LeftArm  -6.20766 52.6442 -71.0425
LeftForeArm  -25.3703 -36.6239 7.15167
LeftHand  -0.538811 -2.99966 8.03106
RightShoulder  8.00196 10.8553 37.1655
RightArm  10.1858 -40.9294 21.0897
RightForeArm  0.180119 18.1318 -7.60292
RightHand  -1.01988 4.67093 -11.6972
LeftUpLeg  -14.7681 -14.1548 -6.06437
LeftLeg  26.9953 -7.39475 4.40541
LeftFoot  -6.6316 -0.297506 4.94798
LeftToes  7.79675e-011 9.80247e-012 -3.28897e-011
125
root  15.0263 38.5079 -1.43468 -5.83405 15.3762 -0.819558
RightUpLeg  -23.8459 -6.76528 3.58091
RightLeg  35.1228 20.983 3.19307
RightFoot  -0.214685 -0.838171 7.27572
RightToes  5.82077e-011 -3.18055e-015 -2.98177e-016
Spine  8.91313 -0.29179 -1.58574
Spine1  6.24146 -0.829462 2.27048
HEad  -7.95422 -8.53261 -0.322824
LeftShoulder1  -3.88251e-019 9.70628e-020 -3.87848e-018
LeftArm  -4.95868 49.6792 -71.0047
LeftForeArm  -24.168 -39.8664 8.23803
LeftHand  -0.664216 -4.91112 8.012
RightShoulder  7.99388 10.8521 37.1332
RightArm  8.12289 -41.5444 20.7468
RightForeArm  1.43015 17.1132 -6.80333
RightHand  -1.16247 5.16059 -12.7285
LeftUpLeg  -15.6644 -15.8488 -4.94368
LeftLeg  28.624 -9.2405 3.51071
LeftFoot  -7.68589 -0.235802 4.55957
LeftToes  7.79675e-011 9.80247e-012 -3.28897e-011
126
root  14.6022 38.3121 -0.983511 -5.6709 19.8203 -1.16298
RightUpLeg  -21.795 -0.550824 1.35646
RightLeg  29.1961 26.3756 5.74308
RightFoot  -0.547868 -0.858314 7.64973
RightToes  5.82077e-011 -3.18055e-015 -2.98177e-016
Spine  10.651 -0.637058 -1.65474
Spine1  5.71649 -1.25323 2.44432
HEad  -7.52297 -9.70144 -0.484868
LeftShoulder1  -3.88251e-019 9.70628e-020 -3.87848e-018
LeftArm  -4.29633 47.1306 -71.4281
LeftForeArm  -24.3908 -42.9717 9.31293
LeftHand  -0.764815 -5.70665 8.54634
RightShoulder  7.96584 10.8438 37.0141
RightArm  6.84639 -42.4388 20.456
RightForeArm  1.85722 16.416 -6.37778
RightHand  -1.1516 4.84186 -12.9796
LeftUpLeg  -17.0448 -17.2469 -4.05787
LeftLeg  31.0188 -12.1848 1.78388
LeftFoot  -8.94014 -0.190936 4.61907
LeftToes  7.79675e-011 9.80247e-012 -3.28897e-011
127
root  14.1035 38.0697 -0.544956 -5.17574 24.8838 -1.67501
RightUpLeg  -21.1089 4.28952 0.0563159
RightLeg  26.8841 26.3671 5.07671
RightFoot  -2.27926 -0.65336 6.78469
RightToes  5.82077e-011 -3.18055e-015 -2.98177e-016
Spine  11.958 -1.02336 -1.21283
Spine1  5.46383 -1.78421 3.07217
HEad  -6.20335 -10.7201 -1.03572
LeftShoulder1  -3.88251e-019 9.70628e-020 -3.87848e-018
LeftArm  -3.7779 45.0255 -72.0541
LeftForeArm  -25.9051 -46.1857 10.4871
LeftHand  -0.818415 -5.18623 9.57338
RightShoulder  7.9808 10.8543 37.0639
RightArm  6.81471 -43.2375 20.0187
RightForeArm  1.84036 16.2472 -6.2654
RightHand  -1.0263 4.10943 -12.4496
LeftUpLeg  -19.4411 -18.5022 -2.66524
LeftLeg  33.9898 -15.6009 -0.663884
LeftFoot  -10.6145 -0.127652 4.52471
LeftToes  7.79675e-011 9.80247e-012 -3.28897e-011
128
root  13.5614 37.8492 -0.170841 -4.36808 29.9572 -2.8235
RightUpLeg  -22.1121 4.92485 0.778812
RightLeg  27.5613 23.2369 3.44107
RightFoot  -3.85592 -0.419358 5.18612
RightToes  5.82077e-011 -3.18055e-015 -2.98177e-016
Spine  12.6177 -1.34584 0.607114
Spine1  5.67874 -2.18379 3.73348
HEad  -4.47914 -11.2455 -2.09093
LeftShoulder1  -3.88251e-019 9.70628e-020 -3.87848e-018
LeftArm  -3.4563 42.9155 -72.8803
LeftForeArm  -27.0505 -48.8895 11.6081
LeftHand  -0.82356 -4.59119 10.1888
RightShoulder  8.00951 10.8755 37.1575
RightArm  7.30251 -43.6463 19.9281
RightForeArm  1.73397 16.4572 -6.37024
RightHand  -0.971403 3.82797 -12.1412
LeftUpLeg  -22.8341 -19.3174 -0.27777
LeftLeg  36.7955 -18.6465 -3.3206
LeftFoot  -11.8677 -0.0665866 3.24714
LeftToes  7.79675e-011 9.80247e-012 -3.28897e-011
129
root  12.9801 37.7257 0.116657 -3.35296 34.4438 -4.07171
RightUpLeg  -23.958 2.72143 2.42082
RightLeg  28.3722 20.1898 1.77505
RightFoot  -4.3832 -0.289642 3.85191
RightToes  5.82077e-011 -3.18055e-015 -2.98177e-016
Spine  13.2934 -1.40602 3.02849
Spine1  5.87809 -2.11088 3.4673
HEad  -2.40672 -10.9853 -3.50505
LeftShoulder1  -3.88251e-019 9.70628e-020 -3.87848e-018
LeftArm  -3.75715 40.7262 -74.005
LeftForeArm  -26.3379 -50.241 12.2958
LeftHand  -0.792715 -4.9144 9.5304
RightShoulder  8.00436 10.894 37.0908
RightArm  7.9359 -43.5916 20.4491
RightForeArm  1.51351 16.9131 -6.67003
RightHand  -1.03768 4.19297 -12.4782
LeftUpLeg  -26.4225 -19.5843 2.38516
LeftLeg  38.7425 -21.592 -6.13873
LeftFoot  -12.3064 -0.0393539 0.994324
LeftToes  7.79675e-011 9.80247e-012 -3.28897e-011
130
root  12.363 37.7228 0.339163 -1.90732 38.4149 -4.38266
RightUpLeg  -25.8772 0.0801395 3.31334
RightLeg  28.408 18.4458 0.720115
RightFoot  -4.02627 -0.246704 3.14167
RightToes  5.82077e-011 -3.18055e-015 -2.98177e-016
Spine  14.5358 -1.31925 4.73604
Spine1  5.69743 -1.69361 2.18578
HEad  0.403851 -10.0573 -4.8453
LeftShoulder1  -3.88251e-019 9.70628e-020 -3.87848e-018
LeftArm  -4.71514 38.8766 -75.2496
LeftForeArm  -24.3191 -49.8928 12.2449
LeftHand  -0.807325 -5.92027 8.82738
RightShoulder  8.00162 10.9194 37.0207
RightArm  9.46024 -43.1167 21.0875
RightForeArm  0.824173 17.6888 -7.20073
RightHand  -1.13748 4.66653 -13.0426
LeftUpLeg  -29.3863 -19.7712 4.18993
LeftLeg  39.3201 -24.5629 -8.79879
LeftFoot  -12.8267 -0.0330685 -1.16982
LeftToes  7.79675e-011 9.80247e-012 -3.28897e-011
